<svg width="200" height="200" viewBox="0 0 200 200" fill="none" xmlns="http://www.w3.org/2000/svg">
<path d="M180.237 94.9199C158.061 72.7441 122.107 72.7441 99.9309 94.9199C77.7551 117.096 77.7551 153.05 99.9309 175.226C122.107 197.402 158.061 197.402 180.237 175.226C202.412 153.05 202.413 117.096 180.237 94.9199ZM123.55 151.607V118.539H156.617V151.607H123.55Z" fill="white"/>
<path d="M170.789 104.368C153.831 87.4101 126.336 87.4101 109.378 104.368C92.4202 121.326 92.4202 148.821 109.378 165.778C126.336 182.736 153.831 182.736 170.789 165.778C187.746 148.821 187.747 121.326 170.789 104.368ZM123.55 151.607V118.539H156.617V151.607H123.55Z" fill="#F12727"/>
<path d="M100.069 94.9199C77.8934 72.7441 41.9391 72.7441 19.7633 94.9199C-2.41248 117.096 -2.41248 153.05 19.7633 175.226C41.9391 197.402 77.8934 197.402 100.069 175.226C122.245 153.05 122.246 117.096 100.069 94.9199ZM43.3828 151.607V118.539H76.45V151.607H43.3828Z" fill="white"/>
<path d="M90.6218 104.368C73.664 87.4101 46.1691 87.4101 29.2113 104.368C12.2535 121.326 12.2535 148.821 29.2113 165.778C46.1691 182.736 73.664 182.736 90.6218 165.778C107.58 148.821 107.58 121.326 90.6218 104.368ZM43.3828 151.607V118.539H76.45V151.607H43.3828Z" fill="#F12727"/>
<path d="M100 8.14172C68.6383 8.14172 43.2148 33.5652 43.2148 64.9269C43.2148 96.2886 68.6383 121.712 100 121.712C131.362 121.712 156.785 96.2886 156.785 64.9269C156.785 33.5652 131.362 8.14172 100 8.14172ZM100 88.3089L76.618 64.9269L100 41.5448L123.382 64.9269L100 88.3089Z" fill="white"/>
<path d="M100 21.5031C76.0176 21.5031 56.5762 40.9448 56.5762 64.9269C56.5762 88.9089 76.018 108.351 100 108.351C123.982 108.351 143.424 88.9089 143.424 64.9269C143.424 40.9448 123.982 21.5031 100 21.5031ZM100 88.3089L76.618 64.9269L100 41.5448L123.382 64.9269L100 88.3089Z" fill="#F12727"/>
<path d="M126.722 131.733H73.2777C71.4332 131.733 69.9375 130.237 69.9375 128.393V121.712C69.9375 119.868 71.4332 118.372 73.2777 118.372H126.722C128.567 118.372 130.062 119.868 130.062 121.712V128.393C130.062 130.237 128.567 131.733 126.722 131.733Z" fill="#BD0000"/>
<path d="M96.4715 79.9586L124.725 128.894C125.647 130.491 127.69 131.039 129.287 130.116L135.073 126.776C136.671 125.854 137.218 123.811 136.296 122.213L108.043 73.2781C107.12 71.6804 105.077 71.1332 103.48 72.0554L97.6941 75.3957C96.0961 76.3179 95.5488 78.3613 96.4715 79.9586Z" fill="#BD0000"/>
<path d="M102.892 79.9586L74.639 128.894C73.7167 130.491 71.6737 131.039 70.0761 130.116L64.2905 126.776C62.6929 125.854 62.1456 123.811 63.0679 122.213L91.321 73.2781C92.2433 71.6804 94.2862 71.1332 95.8839 72.0554L101.669 75.3957C103.267 76.3179 103.814 78.3613 102.892 79.9586Z" fill="#BD0000"/>
<path d="M83.2983 131.733L91.0128 118.371H80.7147L74.6397 128.894C74.0214 129.966 72.8983 130.565 71.7437 130.565C71.3733 130.565 71.005 130.478 70.644 130.351C71.2526 131.169 72.18 131.733 73.278 131.733H83.2983Z" fill="white"/>
<path d="M128.291 108.351H112.863L118.648 118.371L118.648 118.371H126.722C128.566 118.371 130.062 119.867 130.062 121.712V128.392C130.062 128.944 129.896 129.443 129.658 129.901L135.071 126.776C136.67 125.854 137.217 123.811 136.295 122.213L128.291 108.351Z" fill="white"/>
<path d="M94.0483 95.2765L99.6812 85.5195L96.471 79.9586C95.5487 78.3605 96.096 76.3179 97.6937 75.3957L99.6819 74.248L95.8839 72.0554C94.2862 71.1332 92.2433 71.6804 91.3206 73.2781L86.3042 81.9664L94.0483 95.2765Z" fill="white"/>
<path d="M158.466 78.0316C159.419 73.7781 159.916 69.3882 159.916 64.9269C159.916 31.889 133.038 5.0105 100 5.0105C66.9621 5.0105 40.0836 31.889 40.0836 64.9269C40.0836 69.4132 40.5859 73.8257 41.5484 78.0992C16.9508 86.0164 0 109.06 0 135.073C0 168.111 26.8785 194.989 59.9164 194.989C75.3059 194.989 89.3578 189.155 99.9797 179.585C111.005 189.532 125.164 194.989 140.083 194.989C173.121 194.989 200 168.111 200 135.073C200 109.073 183.034 85.9429 158.466 78.0316ZM100.209 135.073C100.209 157.29 82.1336 175.365 59.9164 175.365C37.6992 175.365 19.6242 157.29 19.6242 135.073C19.6242 125.778 22.7023 117.05 28.5254 109.831C33.7773 103.321 40.9855 98.5746 48.9793 96.3171C52.9984 102.826 58.2875 108.581 64.6422 113.225L63.4785 115.24H43.2148C41.4855 115.24 40.0832 116.642 40.0832 118.372V151.775C40.0832 153.504 41.4852 154.907 43.2148 154.907H76.6176C78.3469 154.907 79.7492 153.505 79.7492 151.775V134.865H100.205C100.206 134.934 100.209 135.004 100.209 135.073ZM59.7078 64.9269C59.7078 42.7097 77.7828 24.6347 100 24.6347C122.217 24.6347 140.292 42.7097 140.292 64.9269C140.292 77.2335 134.637 88.8601 125.055 96.482L114.601 78.3742L125.834 67.1414C127.057 65.9183 127.057 63.9355 125.834 62.7128L102.214 39.0937C100.991 37.8707 99.0086 37.8707 97.7859 39.0937L74.1668 62.7128C72.9438 63.9359 72.9438 65.9187 74.1668 67.1414L84.9965 77.971L74.5125 96.1296C65.1895 88.5039 59.7078 77.066 59.7078 64.9269ZM126.514 134.864H126.722C128.868 134.864 130.768 133.81 131.946 132.198L136.638 129.489C139.45 127.865 140.575 124.436 139.412 121.503H153.654V148.643H126.514V134.864ZM128.868 115.614C128.196 115.376 127.475 115.24 126.722 115.24H120.457L99.1832 78.3929C99.1254 78.2933 99.1598 78.1652 99.2598 78.1074L105.045 74.7671C105.064 74.7566 105.121 74.7238 105.204 74.7464C105.287 74.7691 105.32 74.825 105.33 74.8437L128.868 115.614ZM93.2457 76.2078C92.6672 77.9125 92.7906 79.8464 93.7594 81.5246L96.066 85.5195L71.9277 127.328C71.8699 127.427 71.7426 127.462 71.6426 127.405L65.857 124.064C65.7574 124.007 65.723 123.878 65.7801 123.779L93.2457 76.2078ZM110.754 71.7128C109.89 70.2156 108.494 69.1445 106.825 68.6968C105.154 68.2496 103.411 68.4793 101.914 69.3437L99.682 70.6324L97.45 69.3437C94.359 67.5593 90.3937 68.6222 88.6094 71.7125L88.2383 72.3554L80.8094 64.9269L100 45.7359L119.191 64.9265L111.359 72.7585L110.754 71.7128ZM107.078 104.593C102.223 105.448 97.1887 105.41 92.348 104.485L99.682 91.7824L107.078 104.593ZM62.7254 129.489L68.5113 132.829C68.548 132.85 68.5855 132.868 68.6223 132.888C69.8367 134.152 71.4965 134.864 73.2781 134.864H73.4867V148.643H46.3469V121.503H59.9516C58.7879 124.436 59.9129 127.865 62.7254 129.489ZM89.057 110.185C92.625 111.044 96.2973 111.482 100 111.482C103.509 111.482 106.989 111.085 110.38 110.313L113.225 115.24H86.1387L89.057 110.185ZM78.4246 128.601L82.5227 121.503H126.722C126.837 121.503 126.931 121.596 126.931 121.712V128.392C126.931 128.507 126.837 128.601 126.722 128.601H78.4246V128.601ZM120.25 134.864V151.775C120.25 153.504 121.652 154.906 123.382 154.906H156.785C158.514 154.906 159.917 153.504 159.917 151.775V118.371C159.917 116.642 158.515 115.24 156.785 115.24H135.885L134.911 113.553C141.473 108.849 146.92 102.963 151.035 96.2894C159.04 98.5511 166.259 103.32 171.511 109.857C177.311 117.074 180.376 125.794 180.376 135.073C180.376 157.29 162.301 175.365 140.084 175.365C129.604 175.365 119.783 171.414 112.255 164.208C117.079 155.578 119.833 145.642 119.833 135.073C119.833 135.004 119.831 134.934 119.831 134.864H120.25ZM100 11.2734C129.584 11.2734 153.654 35.3421 153.654 64.9269C153.654 82.0457 145.513 97.9976 131.761 108.097L128.215 101.956C139.73 93.1671 146.555 79.4585 146.555 64.9269C146.555 39.2562 125.671 18.3714 100 18.3714C74.3293 18.3714 53.4445 39.2562 53.4445 64.9269C53.4445 79.296 60.0883 92.8164 71.343 101.618L67.7906 107.771C54.3055 97.6558 46.3465 81.8722 46.3465 64.9269C46.3465 35.3421 70.4156 11.2734 100 11.2734ZM6.26289 135.073C6.26289 111.859 21.3414 91.2875 43.2484 84.1332C44.0082 86.3757 44.8996 88.5675 45.9176 90.6972C37.2254 93.4449 29.4156 98.7519 23.6504 105.899C17.0148 114.124 13.3609 124.485 13.3609 135.073C13.3609 160.744 34.2457 181.628 59.9164 181.628C85.5871 181.628 106.472 160.744 106.472 135.073C106.472 135.004 106.469 134.934 106.468 134.864H113.568C113.568 134.934 113.57 135.004 113.57 135.073C113.57 164.657 89.5008 188.727 59.916 188.727C30.3312 188.727 6.26289 164.658 6.26289 135.073ZM140.084 188.727C126.834 188.727 114.253 183.92 104.416 175.151C106.002 173.392 107.486 171.539 108.857 169.601C117.427 177.378 128.4 181.628 140.084 181.628C165.754 181.628 186.639 160.743 186.639 135.073C186.639 124.504 183.001 114.156 176.394 105.933C170.627 98.7554 162.801 93.4253 154.091 90.6707C155.114 88.5269 156.01 86.3218 156.771 84.0652C178.649 91.2171 193.737 111.869 193.737 135.073C193.737 164.658 169.668 188.727 140.084 188.727Z" fill="black"/>
</svg>
